<svg xmlns="http://www.w3.org/2000/svg" xmlns:xlink="http://www.w3.org/1999/xlink" width="71.776" height="82.03" viewBox="0 0 71.776 82.03"><defs><style>.a{fill:url(#a);}</style><linearGradient id="a" x1="-0.599" y1="1.636" x2="1.376" y2="-0.312" gradientUnits="objectBoundingBox"><stop offset="0" stop-color="#d41d00"/><stop offset="1" stop-color="#ff3860"/></linearGradient></defs><g transform="translate(-32 0)"><g transform="translate(32 0)"><g transform="translate(0 0)"><path class="a" d="M146,170.624A17.624,17.624,0,1,0,163.624,153,17.644,17.644,0,0,0,146,170.624Zm28.839,0a11.212,11.212,0,0,1-16.548,9.864l15.2-15.2A11.147,11.147,0,0,1,174.839,170.624Zm-21.079,5.333a11.212,11.212,0,0,1,15.2-15.2Z" transform="translate(-127.735 -128.487)"/><path class="a" d="M101.86,14.69,69.016.271a3.2,3.2,0,0,0-2.587,0L33.906,14.695A3.2,3.2,0,0,0,32,17.624V42.938A41.268,41.268,0,0,0,42.373,69.769a37.475,37.475,0,0,0,11.361,8.854,31.427,31.427,0,0,0,14.155,3.407,32.483,32.483,0,0,0,19.189-6.381,3.2,3.2,0,1,0-3.771-5.182,26.118,26.118,0,0,1-15.418,5.154c-15.429,0-29.48-15.578-29.48-32.684V19.709l29.326-13,29.633,13.01V42.938a33.925,33.925,0,0,1-4.9,17.269,3.2,3.2,0,1,0,5.509,3.274,40.332,40.332,0,0,0,5.8-20.542V17.624A3.2,3.2,0,0,0,101.86,14.69Z" transform="translate(-32 0)"/></g></g></g></svg>