<svg xmlns="http://www.w3.org/2000/svg" width="20" height="19" viewBox="0 0 20 19">
    <g fill="#4C4C4C" fill-rule="evenodd">
        <path d="M7.879 5.917L6.596 4.85c.15-.239.242-.51.242-.801 0-.925-.852-1.674-1.903-1.674-1.052 0-1.905.749-1.905 1.674 0 .925.853 1.675 1.905 1.675.37 0 .713-.097 1.006-.259l1.281 1.066a4.09 4.09 0 0 1 .657-.614zM12.32 5.938l1.667-2.585c.164.044.335.075.513.075 1.03 0 1.864-.767 1.864-1.715C16.364.767 15.53 0 14.5 0c-1.028 0-1.86.766-1.86 1.713 0 .47.205.895.538 1.205l-1.663 2.577c.286.12.556.268.804.442zM18.124 8.313c-.807 0-1.491.487-1.757 1.166l-2.336-.22c0 .018.003.034.003.05 0 .29-.034.571-.095.844l2.336.22c.141.85.913 1.502 1.849 1.502 1.037 0 1.876-.797 1.876-1.781 0-.984-.84-1.781-1.876-1.781zM12.177 15.31l-.506-2.248a4.086 4.086 0 0 1-.893.21l.507 2.248c-.581.31-.982.92-.982 1.633 0 1.021.813 1.847 1.82 1.847 1.003 0 1.816-.826 1.816-1.847a1.83 1.83 0 0 0-1.762-1.843zM6.363 10.094l-2.912.895a1.924 1.924 0 0 0-1.572-.783C.84 10.206 0 10.977 0 11.93c0 .954.84 1.726 1.879 1.726 1.037 0 1.88-.772 1.88-1.726 0-.04-.01-.076-.013-.115l2.92-.898a3.723 3.723 0 0 1-.303-.823z"/>
        <ellipse cx="10.303" cy="8.906" rx="3.03" ry="2.969"/>
    </g>
</svg>
