<svg xmlns="http://www.w3.org/2000/svg" width="21" height="22" viewBox="0 0 21 22">
    <path fill="#4C4C4C" fill-rule="nonzero" d="M18.186 8.075l.182.127h.17v-.318l.534-.05.507.368h.834l.059-.053a10.168 10.168 0 0 0-.283-.806l-.545.01-.273-.293-.052-.469-.28.149-.15.573-.404-.418-.016-.395-.39-.327-.143-.14h-.452l.142.393.544.295.094.098-.118.057.006.311-.265.108-.227-.048-.141-.195.368.019.1-.13-.816-.536-.063-.228-.33.292-.336-.068-.512.647-.1.254-.327.028-.484.004-.29-.132-.085-.56.104-.266.492-.105.537.105.066-.29-.228-.052.078-.45.54-.083.378-.52.39-.063.353.05h.13l-.072-.488-.428.168-.15-.365-.25-.033-.046-.25.202-.215.482-.184.124-.216A10.569 10.569 0 0 0 10.448.844c-2.293 0-4.414.724-6.138 1.948l.527-.004.234.126.443.093.034.17.704.025-.095-.22-.625-.017.147-.135-.052-.161h-.565l.617-.448h.59l.278.372.46.025.278-.262.208.101-.382.364-.503.01c.026 0 .043.354.043.354l.642-.017.07-.169.442-.025.052-.254-.26-.043.087-.228.2-.059.694.034-.383.338.062.262.399.06-.026-.474.382-.195.677-.076.981.423v.364l.313.076-.157.287h-.443l-.131.33-1.011-.233.795-.412-.303-.25-.685.084-.06.06h-.003l-.01.013-.198.2-.326.026.025.159.115.046-.005.052-.266.037-.02.15-.253.012L8 3.465l-.456.135-.931.53.105.375.26.165.52.07v.576l.241-.038.222-.45.554-.17v-.692l.308-.226.744.171-.052.457h.2l.547-.262.026.6.399.236-.017.356-.382.126.026.118.46.204-.009.245-.133.011a.035.035 0 0 0-.001-.007l-.581-.174-.025-.181.17-.114v-.165l-.183-.045-.045.153-.32.048-.032-.01v.015l-.111.017-.09-.178-.105-.045h-.228l-.104.083v.184l.195.063.193.027-.043.019-.176.19-.077-.095-.17-.044-.463.424.06.048-.683.368-.643.651-.044.29-.644.412-.32.313.036.625-.443-.2.004-.367H4.527l-.638.315-.277.498-.11.394.18.383.502.06.8-.52.07.257-.245.449.609.1.06.915.834.138.53-.596.642.128.226.305.617-.035.017-.177.339.16.382.583.66.008.243.415.034.507.73.27.92.01.27.43.408.127-.079.356-.447.553-.13 1.224-.404.31-.599-.016-.199.338.148.635-.652.81-.208.373-.62.29-.41.06-.016.17.287.08-.035.181-.256.24.155.192.31.008-.018.232-.082.229-.027.186.457.374-.06.195-.622-.012-.62-.525-.481-.825.067-.796-.365-.474.148-.802-.217-.059v-1.742s-.607-.448-.642-.448c-.035 0-.322-.076-.322-.076l-.06-.33-.79-.963.077-.346.026-.567.547-.372-.078-.634-.799-.059-.625-.693-.443-.12-.286-.051.035-.253-.365-.05v.143l-.912-.222-.367-.546.15-.265-.578-.82-.1-.6H1.59l.078.582.4.6-.044.237-.339-.05-.416-.692v-.804l-.434-.203v-.579A9.89 9.89 0 0 0 0 11.015c0 5.61 4.687 10.172 10.448 10.172a10.54 10.54 0 0 0 8.104-3.76h-.345v-.676l-.399-.522v-.814l-.304-.295-.027-.338.387-.719-.732-1.26.085-.855-.66-.066-.242-.237h-.444l-.225.203h-.782l-.026.068h-.435l-.997-1.107.008-.863.165-.059.061-.33h-.234l-.096-.346 1.154-.81v-.576l.565-.305.23.022h.464l.364-.19 1.172-.09v.584l.927.229zm-2.024-3.83l.098-.128.353-.061.088.365.187.257.124.122.227.076-.214.217-.414.034H16.3l.035-.315.259-.046-.022-.148-.241-.13-.17-.098.001-.145zm-2.154.505l.326-.58.439-.114.311.15-.028.393-.67.528h-.379V4.75h.001zm-5.29.492l-.218.017.012-.147.097-.118.13.1-.022.148zm.877-.161l-.26.012-.052.14-.2.07-.321.014a1.364 1.364 0 0 1-.018-.073H8.62v-.15h.523l.108-.156.209-.002.237.027-.102.118z"/>
</svg>
