<svg xmlns="http://www.w3.org/2000/svg" width="23.043" height="23.043" viewBox="0 0 23.043 23.043"><defs><style>.a{fill:#707070;}</style></defs><g transform="translate(0)"><path class="a" d="M.1,4.714l9.087,9.144.551.554a1.36,1.36,0,0,0,1.93,0l.551-.554L21.3,4.714a.38.38,0,0,1,.1-.073A2.7,2.7,0,0,0,19.8,4.123h-.911V2.29a.455.455,0,1,0-.911,0V4.123H14.8V.458a.455.455,0,1,0-.911,0V4.123H11.154V.458a.455.455,0,1,0-.911,0V4.123H7.512V.458a.455.455,0,1,0-.911,0V4.123H3.414V2.29a.455.455,0,1,0-.911,0V4.123H1.593A2.7,2.7,0,0,0,0,4.64.38.38,0,0,1,.1,4.714Z" transform="translate(0.823)"/><path class="a" d="M.517.089A.351.351,0,0,1,.453,0,2.606,2.606,0,0,0,0,1.479V15a2.565,2.565,0,0,0,.445,1.462.4.4,0,0,1,.06-.084L8.23,8.221Z" transform="translate(0 5.761)"/><path class="a" d="M12.534,0l-.227.2A2.511,2.511,0,0,1,9.09.2L8.863,0,.1,7.7a.3.3,0,0,1-.1.064,2.934,2.934,0,0,0,1.613.467H19.784A2.934,2.934,0,0,0,21.4,7.763a.3.3,0,0,1-.1-.064Z" transform="translate(0.823 14.813)"/><path class="a" d="M7.713.089,0,8.221l7.725,8.154a.4.4,0,0,1,.06.084A2.565,2.565,0,0,0,8.23,15V1.479A2.606,2.606,0,0,0,7.777,0,.351.351,0,0,1,7.713.089Z" transform="translate(14.813 5.761)"/></g></svg>