<svg xmlns="http://www.w3.org/2000/svg" width="31.728" height="43.063" viewBox="0 0 31.728 43.063"><defs><style>.a{fill:#A014DD;}</style></defs><g transform="translate(0)"><path class="a" d="M94.852,3.833a13.412,13.412,0,0,0-2.324-1.028,16.382,16.382,0,0,0-13.483.99,12.985,12.985,0,0,1-10.7.771c-.306-.107-.579-.212-.815-.311V1.794a1.763,1.763,0,1,0-3.525,0V41.268a1.763,1.763,0,1,0,3.525,0V26.046a16.349,16.349,0,0,0,13.158-1.1,12.985,12.985,0,0,1,10.7-.771,10.188,10.188,0,0,1,1.691.733,1.763,1.763,0,0,0,2.65-1.551V5.384A1.8,1.8,0,0,0,94.852,3.833ZM92.2,20.671a16.349,16.349,0,0,0-13.158,1.1,12.985,12.985,0,0,1-10.7.771c-.306-.107-.579-.212-.815-.311V8.072a16.349,16.349,0,0,0,13.158-1.1,12.979,12.979,0,0,1,10.7-.772c.306.107.579.212.815.311V20.671Z" transform="translate(-64 0)"/></g></svg>
