<svg xmlns="http://www.w3.org/2000/svg" width="11.623" height="16.551" viewBox="0 0 11.623 16.551"><defs><style>.a{fill:#707070;}</style></defs><path class="a" d="M134.226,84.32V82.234a5.085,5.085,0,1,0-10.169.049v2.04a1.088,1.088,0,0,0-.727,1.023v6.538a1.819,1.819,0,0,0,1.816,1.816h7.991a1.819,1.819,0,0,0,1.816-1.816V85.347A1.092,1.092,0,0,0,134.226,84.32Zm-7.99-.062V82.272a2.906,2.906,0,1,1,5.812-.037v2.023h-5.812Zm4.34,6.06a.363.363,0,0,1-.345.478h-2.179a.363.363,0,0,1-.344-.479l.453-1.358a1.431,1.431,0,0,1-.472-1.067,1.453,1.453,0,1,1,2.906,0,1.433,1.433,0,0,1-.472,1.068Z" transform="translate(-123.33 -77.15)"/></svg>