<svg xmlns="http://www.w3.org/2000/svg" width="27.153" height="22.851" viewBox="0 0 27.153 22.851"><defs><style>.a{fill:#707070;}</style></defs><g transform="translate(0 0)"><path class="a" d="M14.216,22.851a23.327,23.327,0,0,1-6.933-1.117L7,21.644l-.011-.065V17.447a5.1,5.1,0,0,1,5.1-5.1h3.38a5.1,5.1,0,0,1,5.1,5.1V21.58h-.028l-.266.134A14.226,14.226,0,0,1,14.216,22.851Zm7.3-4.124h0V17.453a6.089,6.089,0,0,0-4.328-5.8A4.888,4.888,0,0,0,18.7,8.236h3.353a5.1,5.1,0,0,1,5.1,5.1v4.133h-.028l-.266.135a13.729,13.729,0,0,1-5.343,1.123ZM6.038,18.7h0A24.053,24.053,0,0,1,.295,17.622l-.284-.09L0,17.468V13.335a5.1,5.1,0,0,1,5.1-5.1H8.478c.116,0,.23.008.34.016l.034,0a4.891,4.891,0,0,0,1.514,3.4,6.088,6.088,0,0,0-4.328,5.8V18.7Zm7.739-6.625A3.982,3.982,0,1,1,17.76,8.094,3.987,3.987,0,0,1,13.777,12.076ZM6.789,7.966a3.982,3.982,0,1,1,3.982-3.982c0,.05,0,.1-.006.148,0,.026,0,.051,0,.076A4.913,4.913,0,0,0,8.907,7.351,3.97,3.97,0,0,1,6.789,7.966Zm13.576,0a3.953,3.953,0,0,1-1.683-.377,4.9,4.9,0,0,0-2.3-3.665,3.981,3.981,0,1,1,3.978,4.042Z" transform="translate(0 0)"/></g></svg>