<svg xmlns="http://www.w3.org/2000/svg" width="24.579" height="23.043" viewBox="0 0 24.579 23.043"><defs><style>.a{fill:#707070;}</style></defs><path class="a" d="M0,0V5.289A.858.858,0,0,0,.487,6.1a.6.6,0,0,0,.221.042.677.677,0,0,0,.57-.349L3.841,1.585Z" transform="translate(9.217 16.898)"/><path class="a" d="M24.257.139a.785.785,0,0,0-.8-.054L.413,11.818a.742.742,0,0,0,.107,1.373l6.406,2.135L20.568,3.952l-10.557,12.4,10.736,3.578a.8.8,0,0,0,.248.04.786.786,0,0,0,.4-.109.752.752,0,0,0,.36-.529L24.571.86A.742.742,0,0,0,24.257.139Z" transform="translate(0)"/></svg>