<svg xmlns="http://www.w3.org/2000/svg" width="20" height="15" viewBox="0 0 20 15">
    <g fill="#707070" fill-rule="evenodd">
        <path d="M9.742 0a1.85 1.85 0 0 0-1.368.625A1.85 1.85 0 0 0 7.007 0c-1.083 0-1.96.985-1.96 2.2 0 .473.132.91.357 1.268.09.157.198.3.32.425L7.759 6.18c.204.228.407.457.611.457h.01c.204 0 .408-.229.611-.457l2.034-2.287c.122-.125.23-.268.32-.425.225-.359.358-.796.358-1.267C11.702.985 10.824 0 9.742 0zM19.38 7.496a24.56 24.56 0 0 0-3.806-.871 5.268 5.268 0 0 0-.748-.054c-1.625 0-2.952.75-4.236 1.474-.361.204-.89.408-1.449.625-.816.315-1.66.642-2.058 1.001-.36.326-.496.724-.404 1.183.136.67.695.968 1.813.968.748 0 1.67-.133 2.648-.274l.478-.068c-1.337.576-2.477.867-3.395.867-1.055 0-1.742-.392-1.937-1.104-.137-.502-.007-1.135.366-1.781l.056-.096-.08-.031c-.04-.016-4.117-1.626-4.898-1.9a1.57 1.57 0 0 0-.52-.092c-.622 0-1.127.395-1.2.939-.037.262.004.778.684 1.277l5.958 4.015c.2.117.404.253.62.397.662.44 1.346.896 1.981.896.265 0 .518-.044.774-.135.461-.163 1.626-.715 2.86-1.3 1.2-.568 2.442-1.157 2.939-1.335.39-.14.791-.21 1.228-.21.753 0 1.491.204 2.245.43l.257.076V7.55l-.176-.054z"/>
    </g>
</svg>
