<svg xmlns="http://www.w3.org/2000/svg" width="20" height="19" viewBox="0 0 20 19">
    <g fill="#707070" fill-rule="evenodd">
        <path d="M8.132 15.96c-.09-.151-.192-.3-.302-.444-.717-.942-1.701-1.57-2.654-2.178-.268-.171-.61-.44-.972-.723-.528-.413-1.075-.841-1.442-1.005-.333-.147-.604-.151-.808-.012-.297.204-.21.584.284 1.232.33.433.808.943 1.314 1.483l.247.264c-.896-.666-1.555-1.272-1.96-1.804-.465-.611-.56-1.084-.266-1.33.207-.173.602-.217 1.11-.121l.076.014-.018-.052c-.01-.027-.95-2.69-1.149-3.195a1.33 1.33 0 0 0-.18-.319c-.275-.36-.708-.578-1.03-.52-.156.03-.413.15-.379.637l.49 4.205c.025.138.043.282.061.434.057.466.117.948.397 1.316.117.153.252.292.413.423.29.237 1.099.809 1.955 1.414.832.589 1.694 1.198 2.008 1.452.247.2.46.42.653.672.155.204.285.415.402.63h3.01l-.045-.105a19.859 19.859 0 0 0-1.215-2.368zM19.125 7.25c-.323-.058-.756.16-1.03.52-.076.1-.137.208-.18.319-.2.504-1.14 3.168-1.15 3.195l-.018.052.076-.014c.509-.096.903-.053 1.11.121.294.247.2.719-.266 1.33-.405.531-1.063 1.138-1.96 1.804l.247-.264c.506-.54.984-1.05 1.314-1.483.494-.648.581-1.028.284-1.232-.203-.14-.475-.135-.808.012-.367.164-.913.592-1.442 1.005-.362.284-.704.552-.972.723-.952.608-1.937 1.236-2.654 2.178-.11.143-.21.293-.302.444a19.875 19.875 0 0 0-1.214 2.368l-.046.105h3.01c.117-.215.247-.426.402-.63a3.87 3.87 0 0 1 .653-.672c.315-.254 1.176-.863 2.009-1.452.855-.605 1.663-1.177 1.954-1.414.161-.131.296-.27.413-.423.28-.368.34-.85.397-1.316.019-.152.036-.296.061-.433l.49-4.206c.034-.487-.222-.608-.378-.636z"/>
        <g>
            <path d="M14.822 3.53l-.19.062-1.008.091-.285.463-.207-.067-.802-.736-.117-.383-.156-.408-.504-.46-.595-.119-.014.277.583.579.285.342-.32.17-.262-.078-.39-.166.012-.32-.513-.216-.17.755-.518.12.051.42.674.132.117-.672.556.083.26.154h.414l.284.58.753.777-.055.302-.607-.079-1.05.54-.755.921-.098.408h-.271l-.506-.236-.49.236.122.527.213-.25.376-.012-.027.473.312.093.31.355.508-.145.58.093.672.184.336.04.57.658 1.1.658-.712 1.382-.75.355-.285.79-1.087.738-.115.426c2.777-.68 4.843-3.219 4.843-6.253a6.49 6.49 0 0 0-1.072-3.583z"/>
            <path d="M10.026 10.362l-.466-.85.428-.877-.428-.126-.48-.474L8.015 7.8l-.353-.727v.432h-.156L6.59 6.282V5.277l-.673-1.075-1.067.187h-.72l-.362-.233.462-.36-.46.105a6.176 6.176 0 0 0-.88 3.172c0 3.475 2.866 6.294 6.401 6.294.273 0 .54-.024.804-.055l-.067-.763s.294-1.132.294-1.17c0-.04-.295-1.017-.295-1.017z"/>
            <path fill-rule="nonzero" d="M5.635 2.627l1.102-.155.509-.282.572.167.914-.051.313-.497.456.076 1.11-.105.305-.34.43-.29.61.092.222-.034A6.139 6.139 0 0 0 9.535.606a6.17 6.17 0 0 0-4.787 2.279h.003l.884-.258zm4.163-1.398l.634-.352.407.237-.59.453-.562.057-.254-.166.365-.229zM7.92 1.28l.28.118.366-.118.2.35-.846.224-.407-.24s.398-.259.407-.334z"/>
        </g>
    </g>
</svg>
