<svg xmlns="http://www.w3.org/2000/svg" width="18.886" height="17.434" viewBox="0 0 18.886 17.434"><defs><style>.a{fill:#707070;}</style></defs><path class="a" d="M54.2,57a5.09,5.09,0,0,0-5.085,5.085v2.152h0v.754H41.489A1.091,1.091,0,0,0,40.4,66.08v6.538a1.818,1.818,0,0,0,1.816,1.816h7.991a1.819,1.819,0,0,0,1.816-1.816V66.08a1.088,1.088,0,0,0-.726-1.023v-.821h0V62.085a2.905,2.905,0,0,1,5.811,0V63.9a.364.364,0,0,0,.364.363h1.453a.363.363,0,0,0,.363-.363V62.085A5.09,5.09,0,0,0,54.2,57ZM47.6,71.417a.361.361,0,0,1-.295.151H45.122a.362.362,0,0,1-.344-.478l.453-1.358a1.433,1.433,0,0,1-.472-1.068,1.453,1.453,0,1,1,2.906,0,1.43,1.43,0,0,1-.472,1.067l.453,1.358A.361.361,0,0,1,47.6,71.417Z" transform="translate(-40.4 -57)"/></svg>